<svg width="918" height="918" viewBox="0 0 918 918" fill="none" xmlns="http://www.w3.org/2000/svg">
<g clip-path="url(#clip0_4_10)">
<mask id="mask0_4_10" style="mask-type:luminance" maskUnits="userSpaceOnUse" x="0" y="87" width="918" height="745">
<path d="M918 87H0V832H918V87Z" fill="white"/>
</mask>
<g mask="url(#mask0_4_10)">
<path fill-rule="evenodd" clip-rule="evenodd" d="M723.149 227.476V832.456H823.435C875.876 832.456 918.374 789.372 918.374 736.323V108.947C918.374 90.8215 897.547 80.9521 883.757 92.5297L723.149 227.476Z" fill="url(#paint0_linear_4_10)"/>
<path fill-rule="evenodd" clip-rule="evenodd" d="M583.274 345.151L400.057 509.041C368.818 536.941 322.193 537.605 290.202 510.654L0.226562 266.574V109.042C0.226562 90.9167 21.053 80.9524 34.8435 92.53L398.65 398.294C433.83 427.902 484.864 427.902 520.044 398.294L583.274 345.151Z" fill="url(#paint1_linear_4_10)"/>
<path d="M723.149 227.571L583.274 345.151L583.368 345.15L400.057 509.041C368.818 536.941 322.193 537.605 290.202 510.654L0.226562 266.574V736.323C0.226562 789.372 42.7238 832.456 95.1652 832.456H723.149V227.571Z" fill="url(#paint2_radial_4_10)"/>
</g>
</g>
<defs>
<linearGradient id="paint0_linear_4_10" x1="2304.04" y1="1315.39" x2="2116.29" y2="-548.265" gradientUnits="userSpaceOnUse">
<stop offset="0.271" stop-color="#E3D9FF"/>
<stop offset="1" stop-color="#7341FF"/>
</linearGradient>
<linearGradient id="paint1_linear_4_10" x1="542.753" y1="839.371" x2="160.929" y2="-668.454" gradientUnits="userSpaceOnUse">
<stop stop-color="#E3D9FF"/>
<stop offset="1" stop-color="#7341FF"/>
</linearGradient>
<radialGradient id="paint2_radial_4_10" cx="0" cy="0" r="1" gradientUnits="userSpaceOnUse" gradientTransform="translate(914.374 178.728) scale(1070.72 1083.11)">
<stop offset="0.5561" stop-color="#6D4AFF"/>
<stop offset="0.9944" stop-color="#AA8EFF"/>
</radialGradient>
<clipPath id="clip0_4_10">
<rect width="918" height="745" fill="white" transform="translate(0 87)"/>
</clipPath>
</defs>
</svg>
